<svg width="30" height="31" viewBox="0 0 30 31" fill="none" xmlns="http://www.w3.org/2000/svg">
<path d="M27.1629 22.4528C27.8241 21.1088 28.1536 19.6259 28.1239 18.1284C28.0941 16.6308 27.706 15.1622 26.992 13.8455C26.278 12.5288 25.2589 11.4023 24.02 10.5604C22.7811 9.71854 21.3586 9.18576 19.8715 9.0067C19.3783 7.857 18.66 6.81764 17.7589 5.94985C16.8578 5.08206 15.7921 4.4034 14.6246 3.95385C13.4572 3.5043 12.2116 3.29296 10.9612 3.33227C9.71077 3.37158 8.48089 3.66075 7.34398 4.18275C6.20707 4.70474 5.18613 5.449 4.34131 6.37168C3.4965 7.29436 2.8449 8.37679 2.4249 9.5552C2.0049 10.7336 1.82499 11.9842 1.89579 13.2332C1.96658 14.4822 2.28664 15.7044 2.83711 16.8278L1.93946 19.9708C1.85935 20.2519 1.85584 20.5494 1.92929 20.8324C2.00274 21.1154 2.15047 21.3736 2.35721 21.5804C2.56394 21.7871 2.82216 21.9348 3.10515 22.0083C3.38814 22.0817 3.68562 22.0782 3.9668 21.9981L7.10977 21.1004C8.05818 21.5661 9.07836 21.8684 10.1273 21.9946C10.6274 23.1661 11.3609 24.2234 12.2831 25.1021C13.2054 25.9807 14.297 26.6621 15.4914 27.1048C16.6857 27.5476 17.9578 27.7422 19.2299 27.677C20.502 27.6118 21.7474 27.288 22.8902 26.7254L26.0332 27.6231C26.3144 27.7032 26.6119 27.7067 26.8949 27.6333C27.1778 27.5598 27.4361 27.4121 27.6428 27.2054C27.8495 26.9986 27.9973 26.7404 28.0707 26.4574C28.1442 26.1744 28.1407 25.8769 28.0605 25.5958L27.1629 22.4528ZM25.2574 22.6098L26.1422 25.7047L23.0473 24.82C22.8115 24.7537 22.5591 24.7823 22.3441 24.8997C20.616 25.8399 18.5878 26.0641 16.696 25.5241C14.8042 24.9841 13.2 23.723 12.2285 22.0122C13.5123 21.8785 14.7545 21.4809 15.8773 20.8444C17.0002 20.208 17.9793 19.3463 18.7534 18.3135C19.5275 17.2808 20.0798 16.0991 20.3757 14.8428C20.6715 13.5865 20.7045 12.2826 20.4727 11.0129C21.596 11.2777 22.6432 11.7981 23.5325 12.5338C24.4219 13.2694 25.1294 14.2003 25.6001 15.2541C26.0709 16.308 26.292 17.4562 26.2464 18.6094C26.2008 19.7627 25.8896 20.8899 25.3371 21.9032C25.2188 22.1191 25.1902 22.373 25.2574 22.6098Z" fill="#333333"/>
</svg>
