<svg width="24" height="24" viewBox="0 0 24 24" fill="none" xmlns="http://www.w3.org/2000/svg">
<path fill-rule="evenodd" clip-rule="evenodd" d="M1.4032 12C1.4032 9.18955 2.51964 6.49421 4.50693 4.50693C6.49421 2.51964 9.18955 1.4032 12 1.4032C14.8104 1.4032 17.5058 2.51964 19.4931 4.50693C21.4804 6.49421 22.5968 9.18955 22.5968 12C22.5968 14.8104 21.4804 17.5058 19.4931 19.4931C17.5058 21.4804 14.8104 22.5968 12 22.5968C9.18955 22.5968 6.49421 21.4804 4.50693 19.4931C2.51964 17.5058 1.4032 14.8104 1.4032 12ZM12 2.9232C9.59268 2.9232 7.28396 3.8795 5.58173 5.58173C3.8795 7.28396 2.9232 9.59268 2.9232 12C2.9232 14.4073 3.8795 16.716 5.58173 18.4183C7.28396 20.1205 9.59268 21.0768 12 21.0768C14.4073 21.0768 16.716 20.1205 18.4183 18.4183C20.1205 16.716 21.0768 14.4073 21.0768 12C21.0768 9.59268 20.1205 7.28396 18.4183 5.58173C16.716 3.8795 14.4073 2.9232 12 2.9232ZM15.7664 8.2352C15.9164 8.38522 16.0006 8.58867 16.0006 8.8008C16.0006 9.01293 15.9164 9.21638 15.7664 9.3664L13.1312 12L15.7664 14.6336C15.9166 14.7838 16.001 14.9876 16.001 15.2C16.001 15.4124 15.9166 15.6162 15.7664 15.7664C15.6162 15.9166 15.4124 16.001 15.2 16.001C14.9876 16.001 14.7838 15.9166 14.6336 15.7664L12 13.1312L9.3664 15.7664C9.29202 15.8408 9.20371 15.8998 9.10653 15.94C9.00935 15.9803 8.90519 16.001 8.8 16.001C8.69481 16.001 8.59065 15.9803 8.49346 15.94C8.39628 15.8998 8.30798 15.8408 8.2336 15.7664C8.15922 15.692 8.10021 15.6037 8.05996 15.5065C8.01971 15.4093 7.99899 15.3052 7.99899 15.2C7.99899 15.0948 8.01971 14.9906 8.05996 14.8935C8.10021 14.7963 8.15922 14.708 8.2336 14.6336L10.8688 12L8.2336 9.3664C8.08338 9.21618 7.99899 9.01244 7.99899 8.8C7.99899 8.58756 8.08338 8.38382 8.2336 8.2336C8.38382 8.08338 8.58756 7.99899 8.8 7.99899C9.01244 7.99899 9.21618 8.08338 9.3664 8.2336L12 10.8688L14.6336 8.2336C14.7079 8.1591 14.7962 8.09999 14.8934 8.05966C14.9906 8.01933 15.0948 7.99857 15.2 7.99857C15.3052 7.99857 15.4094 8.01933 15.5066 8.05966C15.6038 8.09999 15.6921 8.1607 15.7664 8.2352Z" fill="#E2E6FE"/>
</svg>
