<svg width="30" height="30" viewBox="0 0 30 30" fill="none" xmlns="http://www.w3.org/2000/svg">
<path fill-rule="evenodd" clip-rule="evenodd" d="M14.9288 1.5625H15.0713C17.9576 1.5625 20.2188 1.5625 21.9838 1.8C23.7888 2.0425 25.2138 2.55 26.3326 3.6675C27.4513 4.78625 27.9576 6.21125 28.2001 8.0175C28.4376 9.78125 28.4376 12.0425 28.4376 14.9287V16.2162C28.4384 16.24 28.4384 16.2638 28.4376 16.2875C28.4326 18.6025 28.4038 20.475 28.2001 21.9825C27.9576 23.7888 27.4501 25.2138 26.3326 26.3325C25.2138 27.4512 23.7888 27.9575 21.9826 28.2C20.2188 28.4375 17.9576 28.4375 15.0713 28.4375H14.9288C12.0426 28.4375 9.78131 28.4375 8.01631 28.2C6.21131 27.9575 4.78631 27.45 3.66756 26.3325C2.54881 25.2138 2.04256 23.7888 1.80006 21.9825C1.59631 20.4738 1.56756 18.6025 1.56256 16.2875C1.56167 16.2638 1.56167 16.24 1.56256 16.2162V14.9287C1.56256 12.0425 1.56256 9.78125 1.80006 8.01625C2.04256 6.21125 2.55006 4.78625 3.66756 3.6675C4.78631 2.54875 6.21131 2.0425 8.01756 1.8C9.78131 1.5625 12.0426 1.5625 14.9288 1.5625ZM3.44131 17.1875C3.45381 19.0663 3.49756 20.5375 3.65756 21.7325C3.87256 23.3312 4.28256 24.295 4.99381 25.0075C5.70631 25.7188 6.66881 26.1275 8.26756 26.3425C9.89256 26.56 12.0276 26.5625 15.0001 26.5625C17.9726 26.5625 20.1076 26.56 21.7326 26.3425C23.3313 26.1275 24.2951 25.7175 25.0076 25.0062C25.7188 24.2937 26.1276 23.3312 26.3426 21.7325C26.5026 20.5375 26.5463 19.0663 26.5576 17.1875H23.5501C22.3326 17.1875 22.0138 17.2075 21.7476 17.33C21.4801 17.4538 21.2576 17.6825 20.4651 18.605L19.7088 19.4887L19.5988 19.6162C18.9713 20.35 18.4738 20.9312 17.7863 21.2475C17.0988 21.5637 16.3338 21.5638 15.3688 21.5625H14.6326C13.6663 21.5625 12.9013 21.565 12.2138 21.2475C11.5263 20.9312 11.0288 20.35 10.4013 19.6162C10.3638 19.575 10.3288 19.5325 10.2913 19.4887L9.53506 18.6063C8.74256 17.6813 8.52006 17.4537 8.25256 17.3312C7.98631 17.2075 7.66756 17.1875 6.45006 17.1875H3.44131ZM26.5626 15.3125H23.3826C22.4163 15.3125 21.6513 15.31 20.9638 15.6275C20.2763 15.9437 19.7788 16.525 19.1513 17.2588C19.1138 17.3 19.0788 17.3425 19.0413 17.3863L18.2851 18.2687C17.4926 19.1937 17.2701 19.4213 17.0026 19.5438C16.7363 19.6675 16.4176 19.6875 15.2001 19.6875H14.8001C13.5826 19.6875 13.2638 19.6675 12.9976 19.545C12.7301 19.4212 12.5076 19.1925 11.7151 18.27L10.9588 17.3863L10.8488 17.2588C10.2213 16.525 9.72381 15.9437 9.03631 15.6275C8.34881 15.31 7.58381 15.3112 6.61881 15.3125H3.43756V15C3.43756 12.0275 3.44006 9.8925 3.65756 8.2675C3.87256 6.66875 4.28256 5.705 4.99381 4.9925C5.70631 4.28125 6.66881 3.8725 8.26756 3.6575C9.89256 3.44 12.0276 3.4375 15.0001 3.4375C17.9726 3.4375 20.1076 3.44 21.7326 3.6575C23.3313 3.8725 24.2951 4.2825 25.0076 4.99375C25.7188 5.70625 26.1276 6.66875 26.3426 8.2675C26.5601 9.8925 26.5626 12.0275 26.5626 15V15.3125Z" fill="#0E2087"/>
</svg>
