<svg width="30" height="30" viewBox="0 0 30 30" fill="none" xmlns="http://www.w3.org/2000/svg">
<g clip-path="url(#clip0_375_123)">
<path fill-rule="evenodd" clip-rule="evenodd" d="M10.2038 6.5625H23.4375C24.1835 6.5625 24.8988 6.85882 25.4263 7.38626C25.9537 7.91371 26.25 8.62908 26.25 9.375V20.625C26.25 21.3709 25.9537 22.0863 25.4263 22.6137C24.8988 23.1412 24.1835 23.4375 23.4375 23.4375H10.2038C9.78208 23.4374 9.3658 23.3425 8.98574 23.1598C8.60569 22.977 8.27158 22.7112 8.00816 22.3819L3.36754 16.5825C3.00785 16.1335 2.81187 15.5753 2.81187 15C2.81187 14.4247 3.00785 13.8665 3.36754 13.4175L8.00816 7.61813C8.27119 7.28932 8.60469 7.02376 8.98405 6.84106C9.36342 6.65835 9.77897 6.56316 10.2 6.5625H10.2038ZM5.81066 5.86125C6.33771 5.2024 7.00621 4.67054 7.76667 4.30508C8.52713 3.93962 9.36007 3.74991 10.2038 3.75H23.4375C24.9294 3.75 26.3601 4.34263 27.415 5.39752C28.4699 6.45242 29.0625 7.88316 29.0625 9.375V20.625C29.0625 22.1168 28.4699 23.5476 27.415 24.6025C26.3601 25.6574 24.9294 26.25 23.4375 26.25H10.2038C9.36007 26.2501 8.52713 26.0604 7.76667 25.6949C7.00621 25.3295 6.33771 24.7976 5.81066 24.1387L1.17191 18.3394C0.413316 17.3917 0 16.2139 0 15C0 13.7861 0.413316 12.6083 1.17191 11.6606L5.81066 5.86125ZM13.65 10.2562C13.3835 10.0078 13.0309 9.87262 12.6666 9.87905C12.3022 9.88547 11.9546 10.0331 11.697 10.2907C11.4393 10.5484 11.2918 10.896 11.2853 11.2603C11.2789 11.6246 11.4141 11.9772 11.6625 12.2438L14.4188 15L11.6625 17.7563C11.5244 17.885 11.4136 18.0402 11.3367 18.2127C11.2598 18.3852 11.2185 18.5715 11.2152 18.7603C11.2118 18.9491 11.2466 19.1366 11.3173 19.3117C11.388 19.4868 11.4933 19.6459 11.6268 19.7794C11.7604 19.913 11.9194 20.0183 12.0945 20.089C12.2696 20.1597 12.4572 20.1944 12.646 20.1911C12.8348 20.1878 13.021 20.1464 13.1935 20.0696C13.366 19.9927 13.5213 19.8819 13.65 19.7437L16.4063 16.9875L19.1625 19.7437C19.2913 19.8819 19.4465 19.9927 19.619 20.0696C19.7915 20.1464 19.9777 20.1878 20.1666 20.1911C20.3554 20.1944 20.5429 20.1597 20.718 20.089C20.8931 20.0183 21.0522 19.913 21.1857 19.7794C21.3193 19.6459 21.4245 19.4868 21.4953 19.3117C21.566 19.1366 21.6007 18.9491 21.5974 18.7603C21.5941 18.5715 21.5527 18.3852 21.4759 18.2127C21.399 18.0402 21.2882 17.885 21.15 17.7563L18.3938 15L21.15 12.2438C21.3984 11.9772 21.5337 11.6246 21.5272 11.2603C21.5208 10.896 21.3732 10.5484 21.1156 10.2907C20.8579 10.0331 20.5103 9.88547 20.146 9.87905C19.7817 9.87262 19.4291 10.0078 19.1625 10.2562L16.4063 13.0125L13.65 10.2562Z" fill="#0E2087"/>
</g>
<defs>
<clipPath id="clip0_375_123">
<rect width="30" height="30" fill="white"/>
</clipPath>
</defs>
</svg>
