<svg width="24" height="24" viewBox="0 0 24 24" fill="none" xmlns="http://www.w3.org/2000/svg">
<path d="M12 3C7.038 3 3 7.038 3 12C3 16.962 7.038 21 12 21C16.962 21 21 16.962 21 12C21 7.038 16.962 3 12 3ZM12 4.5C16.1512 4.5 19.5 7.84875 19.5 12C19.5018 13.7955 18.858 15.5317 17.686 16.892C16.514 18.2522 14.892 19.1456 13.116 19.4093V14.187H15.252L15.5873 12.0173H13.116V10.8322C13.116 9.93225 13.4123 9.132 14.2545 9.132H15.6083V7.239C15.3705 7.20675 14.8673 7.137 13.9163 7.137C11.9303 7.137 10.7662 8.1855 10.7662 10.575V12.0173H8.72475V14.187H10.7662V19.3905C9.01481 19.1022 7.42293 18.2006 6.27502 16.8468C5.12711 15.4929 4.49797 13.775 4.5 12C4.5 7.84875 7.84875 4.5 12 4.5Z" fill="#E2E6FE"/>
</svg>
