<svg width="30" height="31" viewBox="0 0 30 31" fill="none" xmlns="http://www.w3.org/2000/svg">
<g clip-path="url(#clip0_184_141)">
<path d="M26.32 16H23.82C23.4885 16 23.1705 16.1317 22.9361 16.3661C22.7017 16.6005 22.57 16.9185 22.57 17.25C22.57 17.5815 22.7017 17.8994 22.9361 18.1339C23.1705 18.3683 23.4885 18.5 23.82 18.5V21H22.3375C22.486 20.5997 22.5642 20.1769 22.5688 19.75C22.5687 18.9245 22.2963 18.1221 21.7938 17.4672C21.2913 16.8123 20.5867 16.3416 19.7893 16.1279C18.992 15.9143 18.1464 15.9697 17.3838 16.2856C16.6211 16.6014 15.984 17.1601 15.5713 17.875C15.4879 18.0172 15.4335 18.1745 15.4111 18.3378C15.3888 18.5011 15.399 18.6673 15.4411 18.8267C15.4833 18.986 15.5565 19.1355 15.6567 19.2664C15.7568 19.3974 15.8818 19.5073 16.0246 19.5897C16.1674 19.6721 16.325 19.7255 16.4885 19.7467C16.652 19.768 16.818 19.7567 16.9771 19.7135C17.1362 19.6703 17.2852 19.5961 17.4155 19.4951C17.5458 19.3941 17.6548 19.2683 17.7363 19.125C17.846 18.935 18.0038 18.7772 18.1938 18.6675C18.3838 18.5577 18.5993 18.5 18.8188 18.5C19.1503 18.5 19.4682 18.6317 19.7026 18.8661C19.9371 19.1005 20.0688 19.4185 20.0688 19.75C20.0688 20.0815 19.9371 20.3994 19.7026 20.6339C19.4682 20.8683 19.1503 21 18.8188 21C18.4872 21 18.1693 21.1317 17.9349 21.3661C17.7005 21.6005 17.5688 21.9185 17.5688 22.25C17.5688 22.5815 17.7005 22.8994 17.9349 23.1339C18.1693 23.3683 18.4872 23.5 18.8188 23.5C19.1503 23.5 19.4682 23.6317 19.7026 23.8661C19.9371 24.1005 20.0688 24.4185 20.0688 24.75C20.0688 25.0815 19.9371 25.3994 19.7026 25.6339C19.4682 25.8683 19.1503 26 18.8188 26C18.5993 26 18.3838 25.9422 18.1938 25.8325C18.0038 25.7228 17.846 25.565 17.7363 25.375C17.6548 25.2317 17.5458 25.1059 17.4155 25.0049C17.2852 24.9039 17.1362 24.8297 16.9771 24.7865C16.818 24.7433 16.652 24.732 16.4885 24.7532C16.325 24.7745 16.1674 24.8278 16.0246 24.9103C15.8818 24.9927 15.7568 25.1026 15.6567 25.2335C15.5565 25.3645 15.4833 25.5139 15.4411 25.6733C15.399 25.8327 15.3888 25.9988 15.4111 26.1621C15.4335 26.3255 15.4879 26.4828 15.5713 26.625C15.984 27.3398 16.6211 27.8985 17.3838 28.2144C18.1464 28.5303 18.992 28.5857 19.7893 28.372C20.5867 28.1584 21.2913 27.6876 21.7938 27.0327C22.2963 26.3778 22.5687 25.5754 22.5688 24.75C22.5642 24.3231 22.486 23.9002 22.3375 23.5H23.8188V27.25C23.8188 27.5815 23.9505 27.8994 24.1849 28.1339C24.4193 28.3683 24.7372 28.5 25.0688 28.5C25.4003 28.5 25.7182 28.3683 25.9526 28.1339C26.1871 27.8994 26.3188 27.5815 26.3188 27.25V18.5C26.6503 18.5 26.9682 18.3683 27.2026 18.1339C27.4371 17.8994 27.5688 17.5815 27.5688 17.25C27.5688 16.9185 27.4371 16.6005 27.2026 16.3661C26.9682 16.1317 26.6515 16 26.32 16ZM11.3563 15.0537C11.3952 15.214 11.4654 15.3649 11.563 15.4979C11.6605 15.6309 11.7834 15.7432 11.9245 15.8285C12.0656 15.9138 12.2223 15.9703 12.3853 15.9948C12.5484 16.0193 12.7147 16.0112 12.8747 15.9712C13.0346 15.9311 13.1851 15.8598 13.3174 15.7613C13.4496 15.6628 13.5611 15.5391 13.6454 15.3974C13.7297 15.2557 13.785 15.0986 13.8084 14.9354C13.8317 14.7721 13.8225 14.6059 13.7813 14.4462L11.585 5.65873C11.4314 5.04146 11.0757 4.49333 10.5745 4.1016C10.0733 3.70987 9.45549 3.49707 8.81938 3.49707C8.18328 3.49707 7.56546 3.70987 7.06429 4.1016C6.56311 4.49333 6.20739 5.04146 6.05376 5.65873L3.85626 14.4462C3.81504 14.6059 3.80583 14.7721 3.82915 14.9354C3.85247 15.0986 3.90786 15.2557 3.99212 15.3974C4.07639 15.5391 4.18787 15.6628 4.32015 15.7613C4.45242 15.8598 4.60287 15.9311 4.76283 15.9712C4.92279 16.0112 5.0891 16.0193 5.25218 15.9948C5.41525 15.9703 5.57187 15.9138 5.71301 15.8285C5.85415 15.7432 5.97703 15.6309 6.07455 15.4979C6.17208 15.3649 6.24233 15.214 6.28126 15.0537L6.98126 12.25H10.6563L11.3563 15.0537ZM7.60751 9.74998L8.47876 6.26623C8.50504 6.19699 8.55175 6.13738 8.6127 6.09532C8.67365 6.05326 8.74595 6.03074 8.82001 6.03074C8.89406 6.03074 8.96637 6.05326 9.02732 6.09532C9.08827 6.13738 9.13498 6.19699 9.16126 6.26623L10.0325 9.74998H7.60751ZM17.57 9.74998H18.82C19.1514 9.75031 19.4692 9.88211 19.7035 10.1165C19.9379 10.3508 20.0697 10.6686 20.07 11V12.25C20.07 12.5815 20.2017 12.8994 20.4361 13.1339C20.6705 13.3683 20.9885 13.5 21.32 13.5C21.6515 13.5 21.9695 13.3683 22.2039 13.1339C22.4383 12.8994 22.57 12.5815 22.57 12.25V11C22.569 10.0057 22.1736 9.05247 21.4706 8.34942C20.7675 7.64637 19.8143 7.25097 18.82 7.24998H17.57C17.2385 7.24998 16.9205 7.38167 16.6861 7.61609C16.4517 7.85051 16.32 8.16845 16.32 8.49998C16.32 8.8315 16.4517 9.14944 16.6861 9.38386C16.9205 9.61828 17.2385 9.74998 17.57 9.74998ZM12.57 21H11.32C10.9886 20.9996 10.6708 20.8678 10.4365 20.6335C10.2021 20.3991 10.0703 20.0814 10.07 19.75V18.5C10.07 18.1685 9.93831 17.8505 9.70389 17.6161C9.46947 17.3817 9.15153 17.25 8.82001 17.25C8.48849 17.25 8.17055 17.3817 7.93612 17.6161C7.7017 17.8505 7.57001 18.1685 7.57001 18.5V19.75C7.571 20.7442 7.96641 21.6975 8.66945 22.4005C9.3725 23.1036 10.3258 23.499 11.32 23.5H12.57C12.9015 23.5 13.2195 23.3683 13.4539 23.1339C13.6883 22.8994 13.82 22.5815 13.82 22.25C13.82 21.9185 13.6883 21.6005 13.4539 21.3661C13.2195 21.1317 12.9015 21 12.57 21Z" fill="#333333"/>
</g>
<defs>
<clipPath id="clip0_184_141">
<rect width="30" height="30" fill="white" transform="translate(0 0.5)"/>
</clipPath>
</defs>
</svg>
