<svg width="30" height="30" viewBox="0 0 30 30" fill="none" xmlns="http://www.w3.org/2000/svg">
<path d="M15 1.25L3.75 6.25V13.75C3.75 20.6875 8.55 27.175 15 28.75C21.45 27.175 26.25 20.6875 26.25 13.75V6.25L15 1.25ZM23.75 13.75C23.75 16.0625 23.1125 18.3125 22.025 20.2625L20.2125 18.45C21.0067 17.2484 21.361 15.809 21.2152 14.376C21.0693 12.943 20.4325 11.6046 19.4125 10.5875C18.24 9.41672 16.6507 8.75914 14.9937 8.75914C13.3368 8.75914 11.7475 9.41672 10.575 10.5875C9.40422 11.76 8.74664 13.3493 8.74664 15.0063C8.74664 16.6632 9.40422 18.2525 10.575 19.425C11.5935 20.4425 12.9317 21.0776 14.364 21.2233C15.7962 21.369 17.2349 21.0165 18.4375 20.225L20.5875 22.375C19.1 24.15 17.175 25.5125 15 26.175C9.975 24.6125 6.25 19.4 6.25 13.75V7.875L15 3.9875L23.75 7.875V13.75ZM15 18.75C12.925 18.75 11.25 17.075 11.25 15C11.25 12.925 12.925 11.25 15 11.25C17.075 11.25 18.75 12.925 18.75 15C18.75 17.075 17.075 18.75 15 18.75Z" fill="#0E2087"/>
</svg>
