<svg width="30" height="30" viewBox="0 0 30 30" fill="none" xmlns="http://www.w3.org/2000/svg">
<path d="M15 20.375L10.375 23.9063C10.1459 24.0938 9.89585 24.1825 9.62502 24.1725C9.35418 24.1625 9.1146 24.0842 8.90627 23.9375C8.69793 23.7917 8.53668 23.5938 8.42252 23.3438C8.30835 23.0938 8.30293 22.8229 8.40627 22.5313L10.1875 16.75L5.65627 13.5313C5.40627 13.3646 5.25002 13.1458 5.18752 12.875C5.12502 12.6042 5.13543 12.3542 5.21877 12.125C5.3021 11.8958 5.44793 11.6925 5.65627 11.515C5.8646 11.3375 6.1146 11.2492 6.40627 11.25H12L13.8125 5.25001C13.9167 4.95834 14.0783 4.73417 14.2975 4.57751C14.5167 4.42084 14.7508 4.34292 15 4.34376C15.25 4.34376 15.4846 4.42209 15.7038 4.57876C15.9229 4.73542 16.0842 4.95917 16.1875 5.25001L18 11.25H23.5938C23.8854 11.25 24.1354 11.3388 24.3438 11.5163C24.5521 11.6938 24.6979 11.8967 24.7813 12.125C24.8646 12.3542 24.875 12.6042 24.8125 12.875C24.75 13.1458 24.5938 13.3646 24.3438 13.5313L19.8125 16.75L21.5938 22.5313C21.6979 22.8229 21.6929 23.0938 21.5788 23.3438C21.4646 23.5938 21.3029 23.7917 21.0938 23.9375C20.8854 24.0833 20.6458 24.1617 20.375 24.1725C20.1042 24.1833 19.8542 24.0946 19.625 23.9063L15 20.375Z" fill="#0E2087"/>
</svg>
