<svg width="30" height="30" viewBox="0 0 30 30" fill="none" xmlns="http://www.w3.org/2000/svg">
<path d="M23.3462 24.5087L16.2025 17.3637C13.0246 19.6231 8.64552 19.0704 6.12857 16.0924C3.61161 13.1144 3.79642 8.70448 6.55373 5.94749C9.3103 3.1893 13.7206 3.00369 16.6992 5.52051C19.6778 8.03734 20.2307 12.4168 17.9712 15.595L25.115 22.74L23.3475 24.5075L23.3462 24.5087ZM11.8562 6.24998C9.48585 6.24944 7.44084 7.91334 6.95932 10.2343C6.4778 12.5552 7.69211 14.8953 9.86707 15.8378C12.042 16.7802 14.5798 16.066 15.944 14.1276C17.3082 12.1891 17.1238 9.55914 15.5025 7.82999L16.2587 8.57999L15.4062 7.72999L15.3912 7.71499C14.456 6.77396 13.183 6.2464 11.8562 6.24998Z" fill="#0F1828"/>
</svg>
