<svg width="30" height="30" viewBox="0 0 30 30" fill="none" xmlns="http://www.w3.org/2000/svg">
<g clip-path="url(#clip0_87_176)">
<path d="M25.2938 7.10749C25.8338 5.61374 24.3863 4.16624 22.8926 4.70749L4.6363 11.31C3.13755 11.8525 2.9563 13.8975 4.33505 14.6962L10.1626 18.07L15.3663 12.8662C15.6021 12.6385 15.9178 12.5126 16.2456 12.5154C16.5733 12.5182 16.8868 12.6497 17.1186 12.8815C17.3503 13.1132 17.4818 13.4267 17.4846 13.7545C17.4875 14.0822 17.3615 14.398 17.1338 14.6337L11.9301 19.8375L15.3051 25.665C16.1026 27.0437 18.1476 26.8612 18.6901 25.3637L25.2938 7.10749Z" fill="#1A5BFF"/>
</g>
<defs>
<clipPath id="clip0_87_176">
<rect width="30" height="30" fill="white"/>
</clipPath>
</defs>
</svg>
